<?xml version="1.0" encoding="UTF-8" standalone="no"?>
<!-- Created with Inkscape (http://www.inkscape.org/) -->

<svg
   xmlns:dc="http://purl.org/dc/elements/1.1/"
   xmlns:cc="http://creativecommons.org/ns#"
   xmlns:rdf="http://www.w3.org/1999/02/22-rdf-syntax-ns#"
   xmlns:svg="http://www.w3.org/2000/svg"
   xmlns="http://www.w3.org/2000/svg"
   xmlns:sodipodi="http://sodipodi.sourceforge.net/DTD/sodipodi-0.dtd"
   xmlns:inkscape="http://www.inkscape.org/namespaces/inkscape"
   width="744.09448819"
   height="1052.3622047"
   id="svg21203"
   version="1.1"
   inkscape:version="0.48.4 r9939"
   sodipodi:docname="RASPICOM.svg">
  <defs
     id="defs21205" />
  <sodipodi:namedview
     id="base"
     pagecolor="#ffffff"
     bordercolor="#666666"
     borderopacity="1.0"
     inkscape:pageopacity="0.0"
     inkscape:pageshadow="2"
     inkscape:zoom="1.4"
     inkscape:cx="288.40965"
     inkscape:cy="542.41822"
     inkscape:document-units="px"
     inkscape:current-layer="layer1"
     showgrid="false"
     inkscape:window-width="1366"
     inkscape:window-height="705"
     inkscape:window-x="-8"
     inkscape:window-y="-8"
     inkscape:window-maximized="1" />
  <metadata
     id="metadata21208">
    <rdf:RDF>
      <cc:Work
         rdf:about="">
        <dc:format>image/svg+xml</dc:format>
        <dc:type
           rdf:resource="http://purl.org/dc/dcmitype/StillImage" />
        <dc:title />
      </cc:Work>
    </rdf:RDF>
  </metadata>
  <g
     inkscape:label="Layer 1"
     inkscape:groupmode="layer"
     id="layer1">
    <path
       inkscape:connector-curvature="0"
       style="fill:#00f200;fill-opacity:1;stroke:#000000;stroke-width:1.81914341;stroke-linecap:butt;stroke-linejoin:miter;stroke-miterlimit:4;stroke-opacity:1;stroke-dasharray:none;display:inline"
       d="m 198.16518,421.34112 0,42.96874 c 4.95945,1.40757 8.59375,5.81565 8.59375,11.0625 0,5.24686 -3.6343,9.65494 -8.59375,11.06251 l 0,98.09375 83.125,-0.1875 c -0.1,-1.68205 -0.15625,-3.43845 -0.15625,-5.3125 0,-9.23346 1.31465,-16.71875 2.9375,-16.71875 1.62285,0 2.9375,7.48529 2.9375,16.71875 0,1.86265 -0.0574,3.60798 -0.15625,5.28125 l 272.125,-0.625 0,-97.15625 c -5.64723,-0.92264 -9.9375,-5.65663 -9.9375,-11.37501 0,-5.71884 4.28957,-10.45292 9.9375,-11.375 l 0,-42.4375 -360.8125,0 z"
       id="path2846-5" />
    <rect
       style="fill:#ac9393;fill-rule:evenodd;stroke:#000000;stroke-width:1.1160363px;stroke-linecap:butt;stroke-linejoin:miter;stroke-opacity:1;display:inline"
       id="rect2848-1-2"
       width="58.883961"
       height="48.883965"
       x="270.14346"
       y="464.26123" />
    <rect
       style="fill:#ac9393;fill-rule:evenodd;stroke:#000000;stroke-width:1.32455075px;stroke-linecap:butt;stroke-linejoin:miter;stroke-opacity:1;display:inline"
       id="rect2848-1-4-9-7"
       width="63.675449"
       height="63.675449"
       x="396.09564"
       y="457.59592" />
    <text
       xml:space="preserve"
       style="font-size:40px;font-style:normal;font-weight:normal;fill:#000000;fill-opacity:1;stroke:none;display:inline;font-family:Bitstream Vera Sans"
       x="199.24744"
       y="652.42682"
       id="text2960-6"><tspan
         sodipodi:role="line"
         id="tspan2962-5"
         x="199.24744"
         y="652.42682">SO-DIMM DDR 2</tspan></text>
    <rect
       style="fill:#ffff00;stroke:#000000;stroke-width:0.62319505;stroke-miterlimit:4;stroke-opacity:1;stroke-dasharray:none;display:inline"
       id="rect2964-7"
       width="3.8107207"
       height="13.669201"
       x="206.38898"
       y="569.23981" />
    <path
       sodipodi:type="arc"
       style="fill:#ffffff;stroke:#000000;stroke-width:1;stroke-miterlimit:4;stroke-opacity:1;stroke-dasharray:none;display:inline"
       id="path2968-54"
       sodipodi:cx="110.96921"
       sodipodi:cy="197.22725"
       sodipodi:rx="4.4256554"
       sodipodi:ry="4.4256554"
       d="m 115.39486,197.22725 a 4.4256554,4.4256554 0 1 1 -8.85131,0 4.4256554,4.4256554 0 1 1 8.85131,0 z"
       transform="translate(96.402086,354.84019)" />
    <path
       sodipodi:type="arc"
       style="fill:#ffffff;stroke:#000000;stroke-opacity:1;display:inline"
       id="path2968-5-1"
       sodipodi:cx="110.96921"
       sodipodi:cy="197.22725"
       sodipodi:rx="4.4256554"
       sodipodi:ry="4.4256554"
       d="m 115.39486,197.22725 a 4.4256554,4.4256554 0 1 1 -8.85131,0 4.4256554,4.4256554 0 1 1 8.85131,0 z"
       transform="translate(438.36692,353.82982)" />
    <rect
       style="fill:#ffff00;stroke:#000000;stroke-width:0.62319505;stroke-miterlimit:4;stroke-opacity:1;stroke-dasharray:none;display:inline"
       id="rect2964-7-7"
       width="3.8107207"
       height="13.669201"
       x="210.93735"
       y="569.23981" />
    <rect
       style="fill:#ffff00;stroke:#000000;stroke-width:0.62319505;stroke-miterlimit:4;stroke-opacity:1;stroke-dasharray:none;display:inline"
       id="rect2964-7-4"
       width="3.8107207"
       height="13.669201"
       x="215.35062"
       y="569.23981" />
    <rect
       style="fill:#ffff00;stroke:#000000;stroke-width:0.62319505;stroke-miterlimit:4;stroke-opacity:1;stroke-dasharray:none;display:inline"
       id="rect2964-7-7-0"
       width="3.8107207"
       height="13.669201"
       x="219.89902"
       y="569.23981" />
    <rect
       style="fill:#ffff00;stroke:#000000;stroke-width:0.62319505;stroke-miterlimit:4;stroke-opacity:1;stroke-dasharray:none;display:inline"
       id="rect2964-7-9"
       width="3.8107207"
       height="13.669201"
       x="224.44739"
       y="569.23981" />
    <rect
       style="fill:#ffff00;stroke:#000000;stroke-width:0.62319505;stroke-miterlimit:4;stroke-opacity:1;stroke-dasharray:none;display:inline"
       id="rect2964-7-7-4"
       width="3.8107207"
       height="13.669201"
       x="228.99576"
       y="569.23981" />
    <rect
       style="fill:#ffff00;stroke:#000000;stroke-width:0.62319505;stroke-miterlimit:4;stroke-opacity:1;stroke-dasharray:none;display:inline"
       id="rect2964-7-4-8"
       width="3.8107207"
       height="13.669201"
       x="233.40903"
       y="569.23981" />
    <rect
       style="fill:#ffff00;stroke:#000000;stroke-width:0.62319505;stroke-miterlimit:4;stroke-opacity:1;stroke-dasharray:none;display:inline"
       id="rect2964-7-7-0-8"
       width="3.8107207"
       height="13.669201"
       x="237.9574"
       y="569.23981" />
    <rect
       style="fill:#ffff00;stroke:#000000;stroke-width:0.62319505;stroke-miterlimit:4;stroke-opacity:1;stroke-dasharray:none;display:inline"
       id="rect2964-7-2"
       width="3.8107207"
       height="13.669201"
       x="242.3707"
       y="569.23981" />
    <rect
       style="fill:#ffff00;stroke:#000000;stroke-width:0.62319505;stroke-miterlimit:4;stroke-opacity:1;stroke-dasharray:none;display:inline"
       id="rect2964-7-7-45"
       width="3.8107207"
       height="13.669201"
       x="246.91907"
       y="569.23981" />
    <rect
       style="fill:#ffff00;stroke:#000000;stroke-width:0.62319505;stroke-miterlimit:4;stroke-opacity:1;stroke-dasharray:none;display:inline"
       id="rect2964-7-4-5"
       width="3.8107207"
       height="13.669201"
       x="251.33234"
       y="569.23981" />
    <rect
       style="fill:#ffff00;stroke:#000000;stroke-width:0.62319505;stroke-miterlimit:4;stroke-opacity:1;stroke-dasharray:none;display:inline"
       id="rect2964-7-7-0-1"
       width="3.8107207"
       height="13.669201"
       x="255.88072"
       y="569.23981" />
    <rect
       style="fill:#ffff00;stroke:#000000;stroke-width:0.62319505;stroke-miterlimit:4;stroke-opacity:1;stroke-dasharray:none;display:inline"
       id="rect2964-7-9-7"
       width="3.8107207"
       height="13.669201"
       x="260.42911"
       y="569.23981" />
    <rect
       style="fill:#ffff00;stroke:#000000;stroke-width:0.62319505;stroke-miterlimit:4;stroke-opacity:1;stroke-dasharray:none;display:inline"
       id="rect2964-7-7-4-1"
       width="3.8107207"
       height="13.669201"
       x="264.97748"
       y="569.23981" />
    <rect
       style="fill:#ffff00;stroke:#000000;stroke-width:0.62319505;stroke-miterlimit:4;stroke-opacity:1;stroke-dasharray:none;display:inline"
       id="rect2964-7-4-8-1"
       width="3.8107207"
       height="13.669201"
       x="269.39075"
       y="569.23981" />
    <rect
       style="fill:#ffff00;stroke:#000000;stroke-width:0.62319505;stroke-miterlimit:4;stroke-opacity:1;stroke-dasharray:none;display:inline"
       id="rect2964-7-7-0-8-5"
       width="3.8107207"
       height="13.669201"
       x="273.93912"
       y="569.23981" />
    <rect
       style="fill:#ffff00;stroke:#000000;stroke-width:0.62319505;stroke-miterlimit:4;stroke-opacity:1;stroke-dasharray:none;display:inline"
       id="rect2964-7-27"
       width="3.8107207"
       height="13.669201"
       x="288.54776"
       y="569.72137" />
    <rect
       style="fill:#ffff00;stroke:#000000;stroke-width:0.62319505;stroke-miterlimit:4;stroke-opacity:1;stroke-dasharray:none;display:inline"
       id="rect2964-7-7-6"
       width="3.8107207"
       height="13.669201"
       x="293.09613"
       y="569.72137" />
    <rect
       style="fill:#ffff00;stroke:#000000;stroke-width:0.62319505;stroke-miterlimit:4;stroke-opacity:1;stroke-dasharray:none;display:inline"
       id="rect2964-7-4-1"
       width="3.8107207"
       height="13.669201"
       x="297.5094"
       y="569.72137" />
    <rect
       style="fill:#ffff00;stroke:#000000;stroke-width:0.62319505;stroke-miterlimit:4;stroke-opacity:1;stroke-dasharray:none;display:inline"
       id="rect2964-7-7-0-4"
       width="3.8107207"
       height="13.669201"
       x="302.0578"
       y="569.72137" />
    <rect
       style="fill:#ffff00;stroke:#000000;stroke-width:0.62319505;stroke-miterlimit:4;stroke-opacity:1;stroke-dasharray:none;display:inline"
       id="rect2964-7-9-2"
       width="3.8107207"
       height="13.669201"
       x="306.60617"
       y="569.72137" />
    <rect
       style="fill:#ffff00;stroke:#000000;stroke-width:0.62319505;stroke-miterlimit:4;stroke-opacity:1;stroke-dasharray:none;display:inline"
       id="rect2964-7-7-4-3"
       width="3.8107207"
       height="13.669201"
       x="311.15454"
       y="569.72137" />
    <rect
       style="fill:#ffff00;stroke:#000000;stroke-width:0.62319505;stroke-miterlimit:4;stroke-opacity:1;stroke-dasharray:none;display:inline"
       id="rect2964-7-4-8-2"
       width="3.8107207"
       height="13.669201"
       x="315.56781"
       y="569.72137" />
    <rect
       style="fill:#ffff00;stroke:#000000;stroke-width:0.62319505;stroke-miterlimit:4;stroke-opacity:1;stroke-dasharray:none;display:inline"
       id="rect2964-7-7-0-8-2"
       width="3.8107207"
       height="13.669201"
       x="320.11621"
       y="569.72137" />
    <rect
       style="fill:#ffff00;stroke:#000000;stroke-width:0.62319505;stroke-miterlimit:4;stroke-opacity:1;stroke-dasharray:none;display:inline"
       id="rect2964-7-2-1"
       width="3.8107207"
       height="13.669201"
       x="324.52948"
       y="569.72137" />
    <rect
       style="fill:#ffff00;stroke:#000000;stroke-width:0.62319505;stroke-miterlimit:4;stroke-opacity:1;stroke-dasharray:none;display:inline"
       id="rect2964-7-7-45-6"
       width="3.8107207"
       height="13.669201"
       x="329.07785"
       y="569.72137" />
    <rect
       style="fill:#ffff00;stroke:#000000;stroke-width:0.62319505;stroke-miterlimit:4;stroke-opacity:1;stroke-dasharray:none;display:inline"
       id="rect2964-7-4-5-8"
       width="3.8107207"
       height="13.669201"
       x="333.49112"
       y="569.72137" />
    <rect
       style="fill:#ffff00;stroke:#000000;stroke-width:0.62319505;stroke-miterlimit:4;stroke-opacity:1;stroke-dasharray:none;display:inline"
       id="rect2964-7-7-0-1-5"
       width="3.8107207"
       height="13.669201"
       x="338.03952"
       y="569.72137" />
    <rect
       style="fill:#ffff00;stroke:#000000;stroke-width:0.62319505;stroke-miterlimit:4;stroke-opacity:1;stroke-dasharray:none;display:inline"
       id="rect2964-7-9-7-7"
       width="3.8107207"
       height="13.669201"
       x="342.58789"
       y="569.72137" />
    <rect
       style="fill:#ffff00;stroke:#000000;stroke-width:0.62319505;stroke-miterlimit:4;stroke-opacity:1;stroke-dasharray:none;display:inline"
       id="rect2964-7-7-4-1-6"
       width="3.8107207"
       height="13.669201"
       x="347.13626"
       y="569.72137" />
    <rect
       style="fill:#ffff00;stroke:#000000;stroke-width:0.62319505;stroke-miterlimit:4;stroke-opacity:1;stroke-dasharray:none;display:inline"
       id="rect2964-7-4-8-1-1"
       width="3.8107207"
       height="13.669201"
       x="351.54956"
       y="569.72137" />
    <rect
       style="fill:#ffff00;stroke:#000000;stroke-width:0.62319505;stroke-miterlimit:4;stroke-opacity:1;stroke-dasharray:none;display:inline"
       id="rect2964-7-7-0-8-5-8"
       width="3.8107207"
       height="13.669201"
       x="356.09793"
       y="569.72137" />
    <rect
       style="fill:#ffff00;stroke:#000000;stroke-width:0.62319505;stroke-miterlimit:4;stroke-opacity:1;stroke-dasharray:none;display:inline"
       id="rect2964-7-279"
       width="3.8107207"
       height="13.669201"
       x="360.69135"
       y="569.72131" />
    <rect
       style="fill:#ffff00;stroke:#000000;stroke-width:0.62319505;stroke-miterlimit:4;stroke-opacity:1;stroke-dasharray:none;display:inline"
       id="rect2964-7-7-5"
       width="3.8107207"
       height="13.669201"
       x="365.23972"
       y="569.72131" />
    <rect
       style="fill:#ffff00;stroke:#000000;stroke-width:0.62319505;stroke-miterlimit:4;stroke-opacity:1;stroke-dasharray:none;display:inline"
       id="rect2964-7-4-4"
       width="3.8107207"
       height="13.669201"
       x="369.65298"
       y="569.72131" />
    <rect
       style="fill:#ffff00;stroke:#000000;stroke-width:0.62319505;stroke-miterlimit:4;stroke-opacity:1;stroke-dasharray:none;display:inline"
       id="rect2964-7-7-0-3"
       width="3.8107207"
       height="13.669201"
       x="374.20139"
       y="569.72131" />
    <rect
       style="fill:#ffff00;stroke:#000000;stroke-width:0.62319505;stroke-miterlimit:4;stroke-opacity:1;stroke-dasharray:none;display:inline"
       id="rect2964-7-9-1"
       width="3.8107207"
       height="13.669201"
       x="378.74976"
       y="569.72131" />
    <rect
       style="fill:#ffff00;stroke:#000000;stroke-width:0.62319505;stroke-miterlimit:4;stroke-opacity:1;stroke-dasharray:none;display:inline"
       id="rect2964-7-7-4-2"
       width="3.8107207"
       height="13.669201"
       x="383.29813"
       y="569.72131" />
    <rect
       style="fill:#ffff00;stroke:#000000;stroke-width:0.62319505;stroke-miterlimit:4;stroke-opacity:1;stroke-dasharray:none;display:inline"
       id="rect2964-7-4-8-3"
       width="3.8107207"
       height="13.669201"
       x="387.7114"
       y="569.72131" />
    <rect
       style="fill:#ffff00;stroke:#000000;stroke-width:0.62319505;stroke-miterlimit:4;stroke-opacity:1;stroke-dasharray:none;display:inline"
       id="rect2964-7-7-0-8-3"
       width="3.8107207"
       height="13.669201"
       x="392.25983"
       y="569.72131" />
    <rect
       style="fill:#ffff00;stroke:#000000;stroke-width:0.62319505;stroke-miterlimit:4;stroke-opacity:1;stroke-dasharray:none;display:inline"
       id="rect2964-7-2-4"
       width="3.8107207"
       height="13.669201"
       x="396.67307"
       y="569.72131" />
    <rect
       style="fill:#ffff00;stroke:#000000;stroke-width:0.62319505;stroke-miterlimit:4;stroke-opacity:1;stroke-dasharray:none;display:inline"
       id="rect2964-7-7-45-1"
       width="3.8107207"
       height="13.669201"
       x="401.22144"
       y="569.72131" />
    <rect
       style="fill:#ffff00;stroke:#000000;stroke-width:0.62319505;stroke-miterlimit:4;stroke-opacity:1;stroke-dasharray:none;display:inline"
       id="rect2964-7-4-5-1"
       width="3.8107207"
       height="13.669201"
       x="405.63474"
       y="569.72131" />
    <rect
       style="fill:#ffff00;stroke:#000000;stroke-width:0.62319505;stroke-miterlimit:4;stroke-opacity:1;stroke-dasharray:none;display:inline"
       id="rect2964-7-7-0-1-3"
       width="3.8107207"
       height="13.669201"
       x="410.18314"
       y="569.72131" />
    <rect
       style="fill:#ffff00;stroke:#000000;stroke-width:0.62319505;stroke-miterlimit:4;stroke-opacity:1;stroke-dasharray:none;display:inline"
       id="rect2964-7-9-7-8"
       width="3.8107207"
       height="13.669201"
       x="414.73148"
       y="569.72131" />
    <rect
       style="fill:#ffff00;stroke:#000000;stroke-width:0.62319505;stroke-miterlimit:4;stroke-opacity:1;stroke-dasharray:none;display:inline"
       id="rect2964-7-7-4-1-7"
       width="3.8107207"
       height="13.669201"
       x="419.27988"
       y="569.72131" />
    <rect
       style="fill:#ffff00;stroke:#000000;stroke-width:0.62319505;stroke-miterlimit:4;stroke-opacity:1;stroke-dasharray:none;display:inline"
       id="rect2964-7-4-8-1-4"
       width="3.8107207"
       height="13.669201"
       x="423.69315"
       y="569.72131" />
    <rect
       style="fill:#ffff00;stroke:#000000;stroke-width:0.62319505;stroke-miterlimit:4;stroke-opacity:1;stroke-dasharray:none;display:inline"
       id="rect2964-7-7-0-8-5-2"
       width="3.8107207"
       height="13.669201"
       x="428.24152"
       y="569.72131" />
    <rect
       style="fill:#ffff00;stroke:#000000;stroke-width:0.62319505;stroke-miterlimit:4;stroke-opacity:1;stroke-dasharray:none;display:inline"
       id="rect2964-7-79"
       width="3.8107207"
       height="13.669201"
       x="432.42957"
       y="569.72137" />
    <rect
       style="fill:#ffff00;stroke:#000000;stroke-width:0.62319505;stroke-miterlimit:4;stroke-opacity:1;stroke-dasharray:none;display:inline"
       id="rect2964-7-7-3"
       width="3.8107207"
       height="13.669201"
       x="436.97797"
       y="569.72137" />
    <rect
       style="fill:#ffff00;stroke:#000000;stroke-width:0.62319505;stroke-miterlimit:4;stroke-opacity:1;stroke-dasharray:none;display:inline"
       id="rect2964-7-4-19"
       width="3.8107207"
       height="13.669201"
       x="441.39124"
       y="569.72137" />
    <rect
       style="fill:#ffff00;stroke:#000000;stroke-width:0.62319505;stroke-miterlimit:4;stroke-opacity:1;stroke-dasharray:none;display:inline"
       id="rect2964-7-7-0-86"
       width="3.8107207"
       height="13.669201"
       x="445.93964"
       y="569.72137" />
    <rect
       style="fill:#ffff00;stroke:#000000;stroke-width:0.62319505;stroke-miterlimit:4;stroke-opacity:1;stroke-dasharray:none;display:inline"
       id="rect2964-7-9-5"
       width="3.8107207"
       height="13.669201"
       x="450.48798"
       y="569.72137" />
    <rect
       style="fill:#ffff00;stroke:#000000;stroke-width:0.62319505;stroke-miterlimit:4;stroke-opacity:1;stroke-dasharray:none;display:inline"
       id="rect2964-7-7-4-0"
       width="3.8107207"
       height="13.669201"
       x="455.03641"
       y="569.72137" />
    <rect
       style="fill:#ffff00;stroke:#000000;stroke-width:0.62319505;stroke-miterlimit:4;stroke-opacity:1;stroke-dasharray:none;display:inline"
       id="rect2964-7-4-8-28"
       width="3.8107207"
       height="13.669201"
       x="459.44968"
       y="569.72137" />
    <rect
       style="fill:#ffff00;stroke:#000000;stroke-width:0.62319505;stroke-miterlimit:4;stroke-opacity:1;stroke-dasharray:none;display:inline"
       id="rect2964-7-7-0-8-6"
       width="3.8107207"
       height="13.669201"
       x="463.99808"
       y="569.72137" />
    <rect
       style="fill:#ffff00;stroke:#000000;stroke-width:0.62319505;stroke-miterlimit:4;stroke-opacity:1;stroke-dasharray:none;display:inline"
       id="rect2964-7-2-0"
       width="3.8107207"
       height="13.669201"
       x="468.41135"
       y="569.72137" />
    <rect
       style="fill:#ffff00;stroke:#000000;stroke-width:0.62319505;stroke-miterlimit:4;stroke-opacity:1;stroke-dasharray:none;display:inline"
       id="rect2964-7-7-45-2"
       width="3.8107207"
       height="13.669201"
       x="472.95969"
       y="569.72137" />
    <rect
       style="fill:#ffff00;stroke:#000000;stroke-width:0.62319505;stroke-miterlimit:4;stroke-opacity:1;stroke-dasharray:none;display:inline"
       id="rect2964-7-4-5-4"
       width="3.8107207"
       height="13.669201"
       x="477.37296"
       y="569.72137" />
    <rect
       style="fill:#ffff00;stroke:#000000;stroke-width:0.62319505;stroke-miterlimit:4;stroke-opacity:1;stroke-dasharray:none;display:inline"
       id="rect2964-7-7-0-1-8"
       width="3.8107207"
       height="13.669201"
       x="481.92136"
       y="569.72137" />
    <rect
       style="fill:#ffff00;stroke:#000000;stroke-width:0.62319505;stroke-miterlimit:4;stroke-opacity:1;stroke-dasharray:none;display:inline"
       id="rect2964-7-9-7-6"
       width="3.8107207"
       height="13.669201"
       x="486.4697"
       y="569.72137" />
    <rect
       style="fill:#ffff00;stroke:#000000;stroke-width:0.62319505;stroke-miterlimit:4;stroke-opacity:1;stroke-dasharray:none;display:inline"
       id="rect2964-7-7-4-1-5"
       width="3.8107207"
       height="13.669201"
       x="491.0181"
       y="569.72137" />
    <rect
       style="fill:#ffff00;stroke:#000000;stroke-width:0.62319505;stroke-miterlimit:4;stroke-opacity:1;stroke-dasharray:none;display:inline"
       id="rect2964-7-4-8-1-0"
       width="3.8107207"
       height="13.669201"
       x="495.43137"
       y="569.72137" />
    <rect
       style="fill:#ffff00;stroke:#000000;stroke-width:0.62319505;stroke-miterlimit:4;stroke-opacity:1;stroke-dasharray:none;display:inline"
       id="rect2964-7-7-0-8-5-9"
       width="3.8107207"
       height="13.669201"
       x="499.97977"
       y="569.72137" />
    <rect
       style="fill:#ffff00;stroke:#000000;stroke-width:0.62319505;stroke-miterlimit:4;stroke-opacity:1;stroke-dasharray:none;display:inline"
       id="rect2964-7-0"
       width="3.8107207"
       height="13.669201"
       x="504.37051"
       y="569.51868" />
    <rect
       style="fill:#ffff00;stroke:#000000;stroke-width:0.62319505;stroke-miterlimit:4;stroke-opacity:1;stroke-dasharray:none;display:inline"
       id="rect2964-7-7-61"
       width="3.8107207"
       height="13.669201"
       x="508.91888"
       y="569.51868" />
    <rect
       style="fill:#ffff00;stroke:#000000;stroke-width:0.62319505;stroke-miterlimit:4;stroke-opacity:1;stroke-dasharray:none;display:inline"
       id="rect2964-7-4-3"
       width="3.8107207"
       height="13.669201"
       x="513.33221"
       y="569.51868" />
    <rect
       style="fill:#ffff00;stroke:#000000;stroke-width:0.62319505;stroke-miterlimit:4;stroke-opacity:1;stroke-dasharray:none;display:inline"
       id="rect2964-7-7-0-89"
       width="3.8107207"
       height="13.669201"
       x="517.88055"
       y="569.51868" />
    <rect
       style="fill:#ffff00;stroke:#000000;stroke-width:0.62319505;stroke-miterlimit:4;stroke-opacity:1;stroke-dasharray:none;display:inline"
       id="rect2964-7-9-3"
       width="3.8107207"
       height="13.669201"
       x="522.42889"
       y="569.51868" />
    <rect
       style="fill:#ffff00;stroke:#000000;stroke-width:0.62319505;stroke-miterlimit:4;stroke-opacity:1;stroke-dasharray:none;display:inline"
       id="rect2964-7-7-4-4"
       width="3.8107207"
       height="13.669201"
       x="526.97736"
       y="569.51868" />
    <rect
       style="fill:#ffff00;stroke:#000000;stroke-width:0.62319505;stroke-miterlimit:4;stroke-opacity:1;stroke-dasharray:none;display:inline"
       id="rect2964-7-4-8-4"
       width="3.8107207"
       height="13.669201"
       x="531.39062"
       y="569.51868" />
    <rect
       style="fill:#ffff00;stroke:#000000;stroke-width:0.62319505;stroke-miterlimit:4;stroke-opacity:1;stroke-dasharray:none;display:inline"
       id="rect2964-7-7-0-8-60"
       width="3.8107207"
       height="13.669201"
       x="535.93903"
       y="569.51868" />
    <rect
       style="fill:#ffff00;stroke:#000000;stroke-width:0.62319505;stroke-miterlimit:4;stroke-opacity:1;stroke-dasharray:none;display:inline"
       id="rect2964-7-2-6"
       width="3.8107207"
       height="13.669201"
       x="540.35229"
       y="569.51868" />
    <rect
       style="fill:#ffff00;stroke:#000000;stroke-width:0.62319505;stroke-miterlimit:4;stroke-opacity:1;stroke-dasharray:none;display:inline"
       id="rect2964-7-7-45-61"
       width="3.8107207"
       height="13.669201"
       x="544.90063"
       y="569.51868" />
    <text
       xml:space="preserve"
       style="font-size:9px;font-style:normal;font-variant:normal;font-weight:normal;font-stretch:normal;text-align:start;line-height:125%;writing-mode:lr-tb;text-anchor:start;fill:#000000;fill-opacity:1;stroke:none;display:inline;font-family:Arial;-inkscape-font-specification:Arial"
       x="227.78763"
       y="564.17426"
       id="text3530-6"
       sodipodi:linespacing="125%"><tspan
         sodipodi:role="line"
         id="tspan3532-1"
         x="227.78763"
         y="564.17426">20 pin</tspan></text>
    <text
       xml:space="preserve"
       style="font-size:9px;font-style:normal;font-variant:normal;font-weight:normal;font-stretch:normal;text-align:start;line-height:125%;writing-mode:lr-tb;text-anchor:start;fill:#000000;fill-opacity:1;stroke:none;display:inline;font-family:Arial;-inkscape-font-specification:Arial"
       x="398.44498"
       y="562.92743"
       id="text3530-2-9"
       sodipodi:linespacing="125%"><tspan
         sodipodi:role="line"
         id="tspan3532-7-5"
         x="398.44498"
         y="562.92743">80 pin</tspan></text>
    <text
       xml:space="preserve"
       style="font-size:9px;font-style:normal;font-variant:normal;font-weight:normal;font-stretch:normal;text-align:start;line-height:125%;writing-mode:lr-tb;text-anchor:start;fill:#000000;fill-opacity:1;stroke:none;font-family:Arial;-inkscape-font-specification:Arial"
       x="349.22318"
       y="546.86145"
       id="text3123-1"
       sodipodi:linespacing="125%"
       inkscape:transform-center-x="36.314209"
       inkscape:transform-center-y="3.333252"><tspan
         sodipodi:role="line"
         id="tspan3125-7"
         x="349.22318"
         y="546.86145">200-Pin SO-DIMM</tspan></text>
    <g
       transform="matrix(0.02008185,0,0,0.02008185,193.71419,446.84961)"
       id="g22125">
      <path
         d="m 3490.6328,2714.6328 -3.3594,-35.3828 c -0.1406,-1.3672 -0.2968,-2.7422 -0.4843,-4.1016 l -2.2813,-16.8672 c -0.3437,-2.4531 -0.7656,-4.8984 -1.2812,-7.3281 l -7.3047,-34.6719 c -0.7891,-3.7656 -1.8047,-7.4921 -3.0156,-11.1484 l -11.125,-33.5156 c -0.5391,-1.625 -1.125,-3.2344 -1.7422,-4.8281 l -6.1563,-15.8829 c -0.7734,-1.9687 -1.6015,-3.914 -2.4844,-5.8437 l -14.6718,-31.7813 c -1.5782,-3.414 -3.3438,-6.75 -5.2891,-9.9687 l -18.1016,-30.0313 c -1.1953,-1.9843 -2.4531,-3.914 -3.7812,-5.8046 L 3400.1406,2454 c -0.8047,-1.1563 -1.6328,-2.2891 -2.4922,-3.4063 l -20.9453,-27.4921 c -2.1953,-2.875 -4.539,-5.6329 -7.0234,-8.2657 l -23.8672,-25.2734 c -2.4453,-2.5781 -5.0078,-5.0313 -7.6953,-7.3438 l -26.8672,-23.0859 -10.8437,-9.25 c -2.5079,-2.1484 -5.1329,-4.1641 -7.8438,-6.0625 l -26.0547,-18.1953 c -7.4297,-14.7656 -15.1719,-29.3438 -23.2109,-43.7266 l 0.3906,-8.7265 c 0.094,-2.1485 0.1172,-4.3047 0.078,-6.4532 l -0.414,-21.9765 c -0.023,-1.836 -0.1094,-3.6641 -0.2422,-5.4844 l -2.5625,-35.5156 c -0.2969,-4.0469 -0.8281,-8.086 -1.5938,-12.0703 l -6.6797,-34.5547 c -0.1015,-0.5078 -4.9453,-23.6797 -4.9453,-23.6797 -0.7265,-3.4922 -1.6328,-6.9297 -2.7265,-10.3203 l -10.6641,-33.3047 c -0.8594,-2.6641 -1.8203,-5.2891 -2.8906,-7.8828 l -8.6953,-21.0391 c -0.4844,-1.1797 -1,-2.3594 -1.5235,-3.5234 l -14.3906,-31.4141 c -1.6875,-3.6797 -3.5859,-7.2578 -5.6953,-10.7109 l -18.0156,-29.5235 c -0.5938,-0.9765 -1.2032,-1.9453 -1.8282,-2.9062 l -12.1406,-18.4688 c -1.5469,-2.3671 -3.1953,-4.664 -4.9375,-6.8906 l -21.0078,-26.8515 c -2.3828,-3.0391 -4.9219,-5.9454 -7.625,-8.7032 l -38.6406,-39.2812 c -2.6406,-2.6797 -5.4141,-5.211 -8.3281,-7.5781 l -26.1641,-21.3125 c -2.6797,-2.1797 -5.4531,-4.2188 -8.3359,-6.1172 l -16.5313,-10.8907 c -0.1406,-0.1015 -27.9531,-18.2265 -27.9531,-18.2265 -2.9375,-1.9141 -5.961,-3.6719 -9.0781,-5.2735 l -7.625,-3.9218 c 1.8125,-3.336 3.3984,-6.8047 4.7421,-10.3985 27.5235,-4.875 56.0313,-12.3203 81.875,-23.6015 25.1641,-10.9922 42.5704,-33.4766 47.6797,-59.3203 33.8282,-12.9532 59.0782,-26.3985 75.5078,-40.2344 19.1719,-16.1641 29.4454,-39.6953 29.1797,-63.6797 21.2657,-13.6953 42.461,-29.4063 60.9532,-46.8516 20.6484,-19.4922 29.2578,-47.6562 24.414,-74.3672 11.6719,-10.4062 23.1797,-21.625 33.8828,-33.5234 20.625,-22.9062 26.4219,-55.0625 16.0235,-83.2578 11.4297,-12.7891 22.3281,-26.1953 31.5625,-39.5938 16.9765,-24.6171 18.9609,-55.9843 6.4531,-82.0703 10.4687,-14.3828 18.4141,-28.6172 23.7891,-42.6406 11.7578,-30.625 4.1484,-65.3203 -19.3516,-88.2109 -0.6172,-0.5938 -1.2422,-1.1875 -1.875,-1.7657 21.0312,-25.25 25,-60.7343 9.8828,-90.0859 -14.1719,-27.5156 -42.4609,-44.4922 -72.9375,-44.4922 -2.875,0 -5.7656,0.1485 -8.6641,0.4531 -10.1953,1.086 -20.1953,1.8672 -30.1406,2.375 -10.2187,-20.375 -28.6875,-36.0078 -51.4765,-42.3125 -20.5938,-5.7109 -43.1719,-8.6015 -67.1094,-8.6015 -9.6719,0 -19.2578,0.4609 -28.6485,1.289 -13.8671,-17.6015 -34.7343,-29.3046 -58.2968,-31.0859 -4.4063,-0.3359 -9,-0.5078 -13.6641,-0.5078 -11.1641,0 -22.9609,1.0312 -34.9609,2.7734 -15.3907,-18.6797 -38.5625,-29.8828 -63.3047,-29.8828 -4.0781,0 -8.2031,0.3047 -12.3438,0.9297 -22.8984,3.4688 -44.0156,8.5234 -63.125,14.3906 -14.9218,-13.2187 -34.2968,-20.6406 -54.414,-20.6406 -7.0782,0 -14.2578,0.9219 -21.3516,2.8438 -22.3047,6 -43.5078,15.2656 -62.8281,25.8281 -12.5938,-7.4375 -27.0469,-11.4375 -41.8047,-11.4375 -9.6953,0 -19.5234,1.7265 -29.0547,5.3359 -17.1016,6.4766 -33.3359,15.8281 -48.2031,26.4297 -11.3594,-5.5703 -23.7266,-8.375 -36.1328,-8.375 -15.4453,0 -30.9375,4.3594 -44.5313,13.1406 -19.5312,12.6172 -40.2265,31.5078 -59.2422,51.25 -6.3359,-1.5312 -12.789,-2.2812 -19.2109,-2.2812 -19.4063,0 -38.5938,6.875 -53.8203,20.0937 -115.9453,100.6563 -156.4844,241.7969 -164.5625,274.3282 -0.01,0.039 -0.016,0.07 -0.023,0.1093 -0.016,-0.039 -0.023,-0.07 -0.031,-0.1093 -8.0781,-32.5313 -48.6172,-173.6719 -164.5625,-274.3282 -15.2266,-13.2187 -34.4141,-20.0937 -53.8203,-20.0937 -6.4219,0 -12.875,0.75 -19.211,2.2812 -19.0156,-19.7422 -39.7109,-38.6328 -59.2421,-51.25 -13.5938,-8.7812 -29.0782,-13.1406 -44.5313,-13.1406 -12.3984,0 -24.7734,2.8047 -36.1328,8.375 -14.8672,-10.6016 -31.0938,-19.9531 -48.2031,-26.4297 -9.5313,-3.6094 -19.3594,-5.3359 -29.0547,-5.3359 -14.7578,0 -29.211,4 -41.8047,11.4375 -19.3203,-10.5625 -40.5234,-19.8281 -62.8281,-25.8281 -7.0938,-1.9219 -14.2735,-2.8438 -21.3516,-2.8438 -20.1094,0 -39.4922,7.4297 -54.4141,20.6406 -19.1093,-5.8672 -40.2265,-10.9218 -63.125,-14.3906 -4.1406,-0.625 -8.2578,-0.9297 -12.3437,-0.9297 -24.7344,0 -47.9141,11.2031 -63.3047,29.8828 -12,-1.7422 -23.7969,-2.7734 -34.9609,-2.7734 -4.6641,0 -9.2578,0.1719 -13.6641,0.5078 -23.5625,1.7813 -44.4297,13.4844 -58.2891,31.0859 -9.3984,-0.8281 -18.9843,-1.289 -28.6562,-1.289 -23.9375,0 -46.5156,2.8906 -67.1094,8.6015 -22.789,6.3047 -41.2578,21.9375 -51.4765,42.3125 -9.9375,-0.5078 -19.9375,-1.289 -30.1329,-2.375 -2.9062,-0.3046 -5.7968,-0.4531 -8.6718,-0.4531 -30.4688,0 -58.7657,16.9766 -72.9375,44.4922 -15.1172,29.3516 -11.1485,64.8359 9.8828,90.0859 -0.6328,0.5782 -1.2578,1.1719 -1.875,1.7657 -23.5,22.8906 -31.1094,57.5859 -19.3516,88.2109 5.3828,14.0234 13.3281,28.2578 23.7891,42.6406 -12.5078,26.086 -10.5156,57.4532 6.4531,82.0703 9.2344,13.3985 20.1406,26.8047 31.5625,39.5938 -10.3906,28.1953 -4.6016,60.3516 16.0234,83.2578 10.7032,11.8984 22.211,23.1172 33.8829,33.5234 -4.8438,26.711 3.7656,54.875 24.4218,74.3672 18.4844,17.4453 39.6797,33.1563 60.9453,46.8516 -0.2656,23.9844 10.0079,47.5156 29.1875,63.6797 16.4219,13.8359 41.6719,27.2812 75.5,40.2344 5.1094,25.8437 22.5157,48.3281 47.6875,59.3203 21.7813,9.5078 45.4532,16.2656 68.836,21.0859 l -25.5313,12.7109 c -2.2656,1.125 -4.4765,2.3204 -6.6406,3.6094 l -25.4531,15.0938 c -2.1641,1.2812 -4.2813,2.6406 -6.3438,4.0859 l -24.2968,16.9453 c -2.0704,1.4375 -4.086,2.9531 -6.0391,4.5391 l -22.9375,18.6484 c -1.9609,1.5938 -3.8594,3.2578 -5.6953,4.9844 l -21.3985,20.1875 c -1.8671,1.7656 -3.6718,3.5937 -5.4062,5.5 l -19.6484,21.5469 c -1.711,1.8828 -3.3594,3.8203 -4.9219,5.8203 l -5.8281,7.4297 -19.1875,24.6328 c -1.6641,2.1406 -3.2422,4.3437 -4.7344,6.6015 l -16.9297,25.7188 c -1.5469,2.3359 -2.9922,4.7344 -4.3359,7.1953 l -14.5469,26.5859 c -1.4141,2.6016 -2.7266,5.2579 -3.9141,7.9688 l -11.9609,27.2266 c -0.625,1.4218 -1.211,2.8515 -1.7656,4.3046 l -6.4375,16.6407 c -0.5391,1.3984 -1.0547,2.8203 -1.5391,4.25 l -9.9141,29.4922 c -1.0312,3.0546 -1.9218,6.1562 -2.6484,9.2968 l -6.9609,29.6641 c -0.586,2.4844 -1.0704,4.9922 -1.4688,7.5156 l -3.2969,21 c -0.125,0.8281 -0.25,1.6485 -0.3515,2.4844 l -4.125,31.1797 c -0.4688,3.5234 -0.75,7.0703 -0.8438,10.625 l -0.8437,30.8437 c -0.047,1.875 -0.047,3.7578 0,5.6328 l 0.5703,20.711 c 0.055,2.1094 0.2109,4.2187 0.3984,6.3125 -8.8906,16.3594 -17.3906,32.9453 -25.5,49.7656 l -15.6172,10.9219 c -2.1093,1.4765 -4.1718,3.039 -6.1718,4.6719 l -23.7032,19.3906 c -2.0078,1.6406 -3.9531,3.3594 -5.8281,5.1562 l -22.1953,21.1485 c -1.8828,1.7968 -3.6953,3.6562 -5.4297,5.5859 l -20.4766,22.7266 c -1.7578,1.9531 -3.4531,3.9765 -5.0546,6.0547 l -18.5704,24.1093 c -1.6328,2.1172 -3.1875,4.3047 -4.6562,6.5547 l -16.5078,25.3047 c -1.4844,2.2734 -2.8828,4.6094 -4.1797,7 l -14.2969,26.25 c -1.3437,2.4844 -2.5937,5.0234 -3.7422,7.6094 l -11.9218,27 c -1.1329,2.5703 -2.1641,5.1953 -3.086,7.8515 l -4.0625,11.7032 -10.0781,29.3515 c -0.9766,2.8594 -1.8359,5.7578 -2.5625,8.6953 l -7.3281,29.6485 c -0.7578,3.0547 -1.375,6.1562 -1.8438,9.2734 l -4.4844,29.6797 c -0.3984,2.5859 -0.6875,5.1875 -0.8828,7.7969 l -1.2734,17.2812 c -0.0547,0.7032 -0.0859,1.3985 -0.1328,2.0938 l -1.6485,31.0156 c -0.1796,3.4531 -0.1953,6.9063 -0.0312,10.3594 l 1.4609,30.5 c 0.1407,3.039 0.4297,6.0703 0.8438,9.0859 l 2.7265,19.8281 c 0.0782,0.5547 5.0079,32.5704 5.0079,32.5704 0.5781,3.7421 1.3671,7.4375 2.3437,11.0859 l 8.0391,29.7891 c 0.5468,2.0156 1.1562,4.039 1.8281,6.0234 l 7.0156,20.8281 c 0.5703,1.7031 1.1953,3.3906 1.8594,5.0625 l 11.5859,29.2266 c 1.4844,3.7344 3.1797,7.3828 5.0938,10.914 l 14.8203,27.4532 c 0.125,0.2343 11.5547,21.0156 11.5547,21.0156 1.8515,3.3828 3.8984,6.6562 6.125,9.7969 l 18.3125,25.9062 c 1.164,1.6406 2.3672,3.25 3.6172,4.8281 l 14.5703,18.2266 c 1.3203,1.6484 2.6953,3.2656 4.1172,4.8359 l 6.8984,7.625 c 16.5859,77.7422 41.0156,152.5625 72.4531,223.6172 0.2422,2.7344 0.5157,5.4688 0.9766,8.1719 l 6.2344,36.8203 c 0.5859,3.4766 1.3593,6.9141 2.2968,10.3047 l 9.8985,35.6641 c 0.3828,1.3672 0.7969,2.7343 1.2344,4.0937 l 6.0234,18.6641 c 0.6797,2.1172 1.4375,4.2109 2.2578,6.2734 l 13.9141,35.1094 c 1.3672,3.4609 2.9297,6.8516 4.6797,10.1562 l 17.5546,33.2032 c 0.7579,1.4297 1.5547,2.8515 2.375,4.2422 l 10.6563,18.0312 c 1.1172,1.8984 2.3047,3.7578 3.5391,5.5781 l 21.4765,31.5078 c 2.1953,3.211 4.5625,6.2969 7.1016,9.2344 l 24.8984,28.875 c 0.7422,0.8516 1.4922,1.6953 2.2578,2.5156 l 14.5703,15.8125 c 1.8907,2.0547 3.8672,4.0235 5.9219,5.9219 l 28.3594,26.1172 c 2.8906,2.6563 5.9219,5.1484 9.1016,7.4688 l 31.3437,22.8281 c 0.375,0.2656 18.4609,13.0781 18.4609,13.0781 2.8204,2 5.75,3.8594 8.7657,5.5625 l 33.9922,19.2266 c 3.3359,1.8828 6.7656,3.5781 10.2812,5.0781 l 19.1641,8.1641 20.75,8.8046 c 96.3672,76.3672 205.2656,137.5938 323.1172,180.1094 l 21.5859,23.9297 c 2.4297,2.6875 4.9922,5.2422 7.6875,7.6641 l 29.9766,26.8672 c 2.289,2.0546 4.664,4 7.1328,5.8437 l 12.0312,8.9688 c 0.461,0.3437 0.9141,0.6796 1.3906,1.0156 l 32.7188,23.5703 c 2.9766,2.1406 6.0625,4.1172 9.2422,5.9297 l 35.2578,20.039 c 3.1797,1.8125 6.4609,3.4532 9.8125,4.9219 l 37.4375,16.25 c 2.1797,0.9531 4.3906,1.8281 6.625,2.625 l 13.0078,4.6016 c 1.2031,0.4219 2.4063,0.8281 3.625,1.2031 l 38.7422,12.1328 c 3.4609,1.086 6.9844,1.9766 10.5547,2.6953 l 40.1172,8.0078 c 3.539,0.7032 7.1015,1.2266 10.6875,1.5547 l 41.125,3.7813 c 3.125,0.289 6.2656,0.4375 9.4062,0.4375 0.375,0 12.6875,-0.1406 12.6875,-0.1406 l 40.6719,-0.5235 c 3.5312,-0.047 7.0547,-0.2734 10.5547,-0.6797 l 40.7656,-4.75 c 3.4766,-0.4062 6.9297,-0.9922 10.3516,-1.7578 l 40.3906,-8.9687 c 3.375,-0.7422 6.7109,-1.6641 10,-2.75 l 39.5703,-13.0938 c 3.2422,-1.0781 6.4375,-2.3125 9.5625,-3.7109 l 38.3359,-17.1094 c 3.1094,-1.3828 6.1407,-2.9219 9.0938,-4.6094 l 36.6562,-20.9453 c 2.2969,-1.3125 4.5391,-2.7109 6.7344,-4.2031 l 3.2578,-2.2109 c 0.586,-0.3985 1.1719,-0.7969 1.75,-1.211 l 33.3907,-23.7031 c 2.7109,-1.9219 5.3203,-3.9688 7.8281,-6.1484 l 31.0234,-26.8985 c 2.7578,-2.3906 5.3828,-4.9297 7.875,-7.6015 0,0 28.9141,-31.0704 29.2031,-31.3829 1.8829,-2.0703 3.6719,-4.2031 5.3594,-6.3828 l 2.336,-2.914 c 100.8906,-39.1797 194.8671,-92.2032 279.6171,-156.7266 l 39.6797,-13.3203 c 3.1563,-1.0625 6.2578,-2.2734 9.2969,-3.6328 l 39.9141,-17.8828 c 3.0547,-1.3672 6.039,-2.8828 8.9375,-4.5391 l 37.9375,-21.6641 c 2.9218,-1.664 5.7656,-3.4765 8.5078,-5.4296 l 35.5312,-25.2188 c 2.7657,-1.9609 5.4297,-4.0547 7.9844,-6.2891 l 32.7109,-28.4765 c 2.5547,-2.2266 5.0079,-4.586 7.336,-7.0547 l 29.5703,-31.4219 c 2.3516,-2.5 4.5781,-5.1172 6.6719,-7.8437 l 26.1015,-34 c 2.125,-2.7578 4.1016,-5.6172 5.9297,-8.5782 l 22.3438,-36.2109 c 1.8437,-2.9766 3.5234,-6.0391 5.0468,-9.1953 l 18.3985,-38 c 0.9297,-1.9297 1.8047,-3.8828 2.6172,-5.8672 l 3.9922,-9.7734 c 0.5312,-1.2891 1.0312,-2.586 1.5078,-3.8985 l 14.6015,-40.3281 c 1.211,-3.3516 2.2578,-6.7656 3.1094,-10.2266 l 10.2422,-41.2656 c 0.8594,-3.4844 1.5391,-7 2.0391,-10.5547 l 5.8125,-41.7578 c 0.5,-3.5781 0.8046,-7.1875 0.9296,-10.7969 l 1.3594,-41.8125 c 0.016,-0.289 0.3672,-14.8125 0.3672,-14.8125 0.023,-0.8593 -0.062,-1.7187 -0.062,-2.5781 18.0859,-51.289 32.6484,-104.2344 43.3594,-158.5625 1.4062,-1.5703 2.8359,-3.1094 4.125,-4.7578 l 6.7344,-8.5625 c 0.1015,-0.1406 23.2421,-29.8516 23.2421,-29.8516 2.1407,-2.7578 4.1407,-5.625 6,-8.5781 l 19.5235,-31.2031 c 1.9062,-3.0234 3.6406,-6.1484 5.2109,-9.3516 l 15.961,-32.625 c 1.3593,-2.7812 2.5937,-5.6172 3.6875,-8.5156 l 5.0937,-13.3516 c 0.1953,-0.4921 13.0938,-35.9531 13.0938,-35.9531 1.2656,-3.4922 2.3359,-7.0547 3.2265,-10.6719 l 8.5938,-35.1328 c 0.8984,-3.6718 1.5937,-7.3828 2.0781,-11.1328 l 4.625,-35.4531 c 0.1016,-0.8125 0.1953,-1.6094 0.2812,-2.4141 l 1.7266,-16.2656 c 0.3203,-2.9844 0.5078,-5.9844 0.5547,-8.9844 l 0.6484,-35.8359 c 0.07,-3.8516 -0.078,-7.7188 -0.4453,-11.5547"
         id="path21527"
         inkscape:connector-curvature="0"
         style="fill:#000000;fill-rule:nonzero;stroke-linecap:butt;stroke-linejoin:bevel;stroke-miterlimit:16" />
      <path
         d="m 1237.3516,3031.2266 -0.078,0.031"
         id="path21529"
         inkscape:connector-curvature="0"
         style="fill:#ff0d40;fill-rule:nonzero;stroke-linecap:butt;stroke-linejoin:bevel;stroke-miterlimit:16" />
      <path
         d="m 1237.3516,3031.2266 -0.078,0.031"
         id="path21531"
         inkscape:connector-curvature="0"
         style="fill:none;stroke:#fa0f45;stroke-width:1;stroke-linecap:round;stroke-linejoin:round;stroke-miterlimit:16" />
      <path
         d="m 1291.5781,2973 15.7344,-32.6016 1.7734,-5.3984 7.2422,-25.8281 3.2188,-6.2188 6.5781,-17.6797 3.7969,-11.6953 4.125,-11.5703 6.7187,-26.0547 4.0547,-17.6172 4.3906,-30.5468 1.336,-4.5938 2.6953,-10.3281 4.5,-27.5938 0.6875,-3.039 3.4062,-16.8438 1.9141,-16.5703 2.8047,-27.8672 0.2891,-3.4922 0,-11.25 0.6406,-8.4453 1.0703,-16.6094 0.6719,-13.2187 0,-0.4063 -0.3985,-11.1093 -0.4453,-9.3203 -0.1562,-2.5 0.1328,-5.0079 0.1094,-6.4609 0.023,-5.7656 -0.055,-5.2735 -0.1094,-4.8671 -0.1797,-4.5782 -0.2343,-4.3593 -0.2813,-4.2266 -0.3437,-4.1328 -0.4063,-4.1172 -0.4844,-4.1406 -0.031,-0.1953 -0.1484,-4.2188 -0.2579,-4.6641 -0.3437,-5.0078 -0.4453,-5.4609 -0.586,-6.1016 -0.7812,-6.9453 -1.0313,-8.1406 -0.6562,-4.6406 -0.625,-2.5235 -0.2578,-1.8672 -1.75,-10.8203 -2.5313,-13.7187 -0.9922,-4.836 -3.4765,-9.0625 -1.2969,-3.0468 -3.9453,-13.7735 -0.5234,-0.9609 -9.1954,-14.6406 -2.289,-3.1641 -5.2422,-3.7109 -1.6094,-2.1563 -2.625,-4.9922 -1.4297,-2.3203 -11.6797,-7.2109 -1.2109,-0.1172 -14.5703,0.875 -3.3984,1.2422 -10.0157,4.5234 -11.2656,6.6328 -25.0078,17.4844 -23.7109,19.3906 -22.1875,21.1641 -20.4766,22.7187 -18.5781,24.1094 -16.5078,25.2969 -14.2891,26.25 -11.9219,27.0078 -3.9687,11.4297 -10.0782,29.3437 -7.3281,29.6407 -4.4844,29.6797 -1.2812,17.2812 -1.6484,31.0156 1.4609,30.5078 2.7266,19.8204 4.7734,30.9296 8.0391,29.7735 7.0078,20.8203 11.5937,29.2344 14.8281,27.4453 11.1719,20.3359 18.3125,25.9141 14.5703,18.2344 15.4766,17.0859 3.4531,3.4141 4.6094,2.414 9.5703,5.9375 2.7422,0.6328 12.5078,-1.6015 3.7109,-2.1016 14.086,-6.6797 5.7812,-4.6953 7.0625,-8.9062 5.9141,-6.3282 3.5,-5.1562 4.5312,-10.1406 11.7891,-13.8829 1.6406,-2.4687"
         id="path21533"
         inkscape:connector-curvature="0"
         style="fill:#ffffff;fill-rule:nonzero;stroke-linecap:butt;stroke-linejoin:bevel;stroke-miterlimit:16" />
      <path
         d="m 1921.2891,1996.0469 2.8437,15.6953 2.3516,6.9687 3.8672,7.125 5.4609,7.586 2.2813,5.5234 3.914,6.8516 3.2969,6.1484 8.3672,11.9141 2.1015,2.3672 7.625,7.1484 0.8282,0.8437 11.1562,9.5 8.6797,6.1641 3.0391,2.3906 12.0312,7.9453 4.7578,2.6719 7.6328,4.7266 12.0235,6.3203 0.8515,0.5 13.2344,6.6094 6.1875,2.5937 7.6328,3.6094 13.6797,5.4766 0.7656,0.3437 15.1329,5.7422 7.6484,2.4141 8.3437,3.0234 17.0079,5.0312 1.3359,0.3204 16.8125,4.6562 15.5391,3.3906 3.9296,1 20.9688,4.1094 7.5234,1.0469 10.7813,0.9453 4.1015,0.4609 23.7891,1.1875 23.8672,-0.25 1.3281,0.1797 20.9297,1.7188 8.2813,0.8984 2.5546,0.1328 27.5938,-0.664 31.4531,-2.7813 19.7578,-3.125 11.8985,-2.7812 8.3515,-2.6719 25.7969,-3.3985 22.1094,-4.6171 12.4922,-3.7891 31.2812,-12.8125 18.336,-9.9219 0.3281,-0.2265 11.2422,-4.7579 11.3984,-6.6015 17.5234,-9.2031 7.5704,-5.3594 15.25,-13.8828 16.3281,-21 0.9844,-0.8125 4.2187,-5.3125 2.9531,-5.2813 7.1172,-10.3672 8.586,-22.2968 0.4843,-4.4219 -0.086,-17.0156 0.1562,-2.2657 -3.9453,-23.0156 -1.3047,-3.2266 -5.3828,-15.3906 -1.5,-3.3047 -1.1406,-1.6797 -12.3281,-18.5859 -5.9766,-6.9609 -21.7031,-23.9375 -24.5547,-21.4219 -17.7344,-14.5703 -26.3437,-18.1797 -19.4219,-10.6797 -27.4297,-14.8203 -29.3047,-12.0859 -18.8125,-5.7657 -29.3437,-8.789 -30.586,-6.0391 -31.5781,-3.2969 -14.5312,-0.6718 -30.2188,-0.4766 -30.6094,2.0781 -30.7109,4.6328 -30.5469,7.125 -30.1406,9.5391 -29.4531,11.8672 -28.5313,14.0781 -27.3437,16.1641 -25.9453,18.125 -24.3203,19.9218 -21.0079,20.1329 -1.1796,1.2187 -15.0704,18.9766 -5.9453,9.5781 -4.625,7.3437 -0.7109,1.5625 -5.1328,17.9454 -0.5078,4.3046 -3.1407,12.1485 -0.1718,1.3672 0.3828,9.125 0.2422,8"
         id="path21535"
         inkscape:connector-curvature="0"
         style="fill:#ffffff;fill-rule:nonzero;stroke-linecap:butt;stroke-linejoin:bevel;stroke-miterlimit:16" />
      <path
         d="m 1342.4297,2298.5937 -0.1875,0.024"
         id="path21537"
         inkscape:connector-curvature="0"
         style="fill:#ff0d40;fill-rule:nonzero;stroke-linecap:butt;stroke-linejoin:bevel;stroke-miterlimit:16" />
      <path
         d="m 1342.4297,2298.5937 -0.1875,0.024"
         id="path21539"
         inkscape:connector-curvature="0"
         style="fill:none;stroke:#fa0f45;stroke-width:1;stroke-linecap:round;stroke-linejoin:round;stroke-miterlimit:16" />
      <path
         d="m 1848.8672,1891.8437 -0.01,-0.1328"
         id="path21541"
         inkscape:connector-curvature="0"
         style="fill:#ff0d40;fill-rule:nonzero;stroke-linecap:butt;stroke-linejoin:bevel;stroke-miterlimit:16" />
      <path
         d="m 1848.8672,1891.8437 -0.01,-0.1328"
         id="path21543"
         inkscape:connector-curvature="0"
         style="fill:none;stroke:#fa0f45;stroke-width:1;stroke-linecap:round;stroke-linejoin:round;stroke-miterlimit:16" />
      <path
         d="m 1333.6484,2295.8672 0.5,0.7187 8.2813,2.0078 1.3125,0.6563 12.6875,0.8828 4.9375,-0.8203 15.1484,-6.1797 6.7813,-3.4609 16.3359,-5.3672 13.8047,-5.8438 11.3438,-6.5078 21.1484,-13.414 5.6328,-4.3204 2.1953,-1.7968 11.875,-6.5703 9.9063,-4.9688 10.5156,-5.8516 11.9219,-7.8593 20.7656,-14.5391 9,-6.6797 2.5469,-1.6797 6.9218,-5.2031 16.6485,-13.0156 14.4531,-11.7422 3.1953,-2.6953 9.5235,-7.1641 1.1328,-0.8906 1.3125,-1.1172 9.2812,-6.9766 10.6563,-8.375 7.0547,-5.8046 2.7578,-2.0157 9.25,-7.1015 8.7578,-7.0078 8.3125,-6.9688 6.6719,-5.8281 1.3437,-1.0625 8.0703,-6.6172 7.9453,-6.7813 7.8516,-7.0234 7.8359,-7.3125 0.7266,-0.7109 7.6875,-6.7188 8.6719,-7.914 8.9531,-8.5547 8.2578,-8.2344 1.1797,-1.0547 3.9531,-3.6641 1.1719,-0.9687 5.9297,-5.2734 11.7031,-10.8829 12.0547,-11.6718 0.7578,-0.6641 14.5859,-13 1.2188,-1.2578 14.0156,-15.0781 9.1406,-10.5078 6.7735,-6.9375 1.4609,-1.5938 11.875,-16.0859 5.7735,-8.8125 6.125,-6.0235 3.9296,-4.7187 13.6485,-18.2891 1.1484,-1.3906 0.055,-0.039 7.5703,-17.1172 1.2266,-4.6953 5.3359,-10.3906 0.9766,-3.6875 -2.2422,-7.2344 -3.5,-3.8203 -0.9141,-0.4297 -0.5468,-0.2734 -1.9766,-1.6875 -4.5,-1 -15.7734,-3.4063 -20.4454,-4.3906 -30.4453,-3.539 -31.2656,-0.711 -17.4297,0.01 -29.8203,1.961 -30.0937,4.5468 -30.086,7.086 -10.4844,3.2265 -27.5468,8.8282 -27.0782,11.0312 -26.3828,13.1172 -25.4531,15.0938 -24.3047,16.9453 -22.9375,18.6484 -21.3984,20.1797 -19.6485,21.5469 -5.6171,7.164 -19.1797,24.625 -16.9375,25.7188 -14.5469,26.5859 -11.9609,27.2266 -6.4219,16.6484 -9.9219,29.4922 -6.9609,29.6641 -3.2969,21.0078 -4.1172,31.1797 -0.8437,30.8437 0.5703,20.711 1.9843,11.6406"
         id="path21545"
         inkscape:connector-curvature="0"
         style="fill:#ffffff;fill-rule:nonzero;stroke-linecap:butt;stroke-linejoin:bevel;stroke-miterlimit:16" />
      <path
         d="m 1906.5938,2922.8047 36.4453,-15.336 17,-10.3906 19.664,-10.3984 30.1641,-22.2031 4.2578,-2.7579 32.1094,-28.1171 8.1484,-9.4688 17.1094,-17.7266 3.7578,-4.2343 1.7578,-2.6953 16.125,-20.4141 8.5938,-9.9063 23.1015,-34.9296 1.1016,-2.211 18.5625,-34.0781 6.3516,-16.2969 9.289,-21.2578 8.5156,-29.2344 3.0313,-9.0312 0.8516,-4.336 4.6796,-32.4375 0.5469,-2.1328 0.3672,-3.0078 5.1719,-33.4453 0.3359,-12.1562 1.3672,-23.7735 -1.3281,-18.7969 -0.6719,-16.2031 -3.9375,-22.7969 -1.5781,-10.8984 -6.7813,-24.1953 -2.0078,-7.9141 -0.078,-0.1875 -7.3672,-16.3125 -2.1484,-6.5468 -2.0703,-6.7032 -8.5391,-18.8203 -3.7969,-8.7265 -8.0312,-13.4375 -6.9453,-12.1016 -5.3438,-7.0156 -12.0312,-16.3516 -0.125,-0.1406 -13.0391,-14.086 -6.1797,-6.8906 -6.1172,-5.289 -11.8594,-10.5625 -3.1484,-2.9063 -8.6797,-6.1719 -11.0781,-8.1093 -2.8203,-2.1329 -8.3594,-4.8281 -10.6641,-6.3359 -4.6796,-2.8985 -5.9375,-2.7187 -10.5625,-5.0234 -8.1563,-4.0157 -2.2344,-0.7734 -10.8203,-3.9688 -10.7656,-4.0703 -1.6406,-0.6562 -9.7344,-2.5625 -11.7109,-3.2266 -4.7579,-1.375 -7.6562,-1.2969 -13.2109,-2.3437 -6.1329,-1.1563 -8.0703,-0.625 -15.414,-1.3281 -4.2891,-0.3984 -12.4766,0.1328 -15.9921,0.055 -2.5079,0.2656 -20.1718,1.9453 -6.3438,0.5938 -15.7812,2.9453 -13.6797,2.5234 -10.6094,2.9453 -19.0234,5.211 -7.3828,2.7343 -14.4297,5.2813 -7.711,2.6094 -6.9297,3.0703 -2.1171,0.9297 -20.0157,9.4453 -8.5312,4.9219 -20.1328,11.5546 -11.7422,8.0547 -16.2735,11.1094 -16.2656,13.1094 -10.8203,8.6797 -21.6562,20.375 -4.1485,3.9062 -8.4844,9.3047 -16.25,17.5703 -3.4296,4.3672 -1.2657,1.6094 -16.8359,22.2969 -18.6719,29.4218 -2.3984,3.9844 -14.6719,27.8906 -3.0391,5.7735 -15.0781,35.2343 -2.3828,7.2657 -9.7266,29.2343 -2.125,9.0391 -2.125,8.6953 -0.9921,4.5156 -3.4532,15.9375 -4.9062,38.6563 0,0.1172 -1.3906,38.9765 1.0468,15.3125 1.336,23.2735 5.2109,30.7422 1.0625,6.8515 10.125,36.5547 3.4375,8.125 6.0547,15.336 4.6953,11.2656 12.0313,20.8281 6.1875,11.2109 21.7812,29.3829 2.1563,2.1796 23.0468,24.6172 14.3828,11.375 13.961,11.8672 29.1953,17.9766 1.9766,1.3359 33.789,15.8281 12.9453,3.6954 22.9532,7.7968 29.5156,5.0547 8.0156,1.7891 38.8125,2.5 8.3125,-0.7735 31.2891,-1.1562 21.3047,-4.0703 3.6796,-0.7891 14.7266,-2.1797 39.125,-12.4062 1.9063,-0.9375"
         id="path21547"
         inkscape:connector-curvature="0"
         style="fill:#ffffff;fill-rule:nonzero;stroke-linecap:butt;stroke-linejoin:bevel;stroke-miterlimit:16" />
      <path
         d="m 2535.9609,2194.8672 -18.6562,6.6719 -11.4609,4.9531 -14.7266,6.0625 -2.8984,1.75 -4.3282,2.0547 -27.1718,15.1093 -13.75,8.8594 -8.8594,7.6953 -8.2422,8.0235 -10.0547,9.0859 -13.4297,13.625 -1.5859,2.125 -11.2735,16.75 -0.9765,1.625 -8.6485,12.7969 -4.0156,6.6562 -4.3906,6.2969 -7.25,11.8594 -0.1172,0.2265 -1.5156,3.5469 -4.25,8.6172 -5.0235,11.5313 -4.25,11.1562 -3.2734,10.0078 -0.3437,0.8828 -3.5625,10.6641 -3.0235,10.6953 -2.4844,10.8047 -1.7187,9.4375 -0.3672,1.5625 -2.1641,11.4609 -1.7187,11.961 -1.1953,12.6015 -0.4063,8.1407 -0.5703,5.4062 -0.6719,10.7344 0.07,4.1015 1.1562,15.6407 0.5938,4.5703 0.6718,12.1015 0,1.1797 0.961,21.5703 1.875,21.6172 0.5781,2.9063 4.0156,16.1328 2.0625,10.2422 7.9297,31.3906 1.6875,5.5859 11.6953,26.1016 10.2031,19.6328 5.5157,11.4844 1.3359,4.2656 0.3594,0.75 23.3203,43.5469 6.2187,10.1484 24.4922,30.2344 18.5235,19.7734 6.6172,5.5547 12.4609,13.9844 25.0937,24.3828 19.5547,14.6719 35.2188,21.7344 12.2969,5.75 1.2343,0.7968 42.5469,22.1016 11.0234,4.0234 50.1094,11.7266 2.8985,0.8047 2.2578,0.3437 17.7578,0.6875 33.1719,5.4375 13.3203,0.2891 36.6562,-3.7109 31.0078,-8.1719 7.3047,-1.3672 7.6953,-2.2578 18.4532,-8.6172 23.3281,-8.8203 25.1953,-15.0781 11.75,-8.3516 1.0469,-1.0469 30.6015,-26.7422 26.625,-32.4453 6.2969,-10.8281 9.9531,-15.1875 5.4532,-9.1172 16.25,-38.4765 6.1562,-22.2422 5.4063,-18.1563 6.8046,-41.8047 1.5547,-34.2578 0.4844,-9.3906 -2.6328,-43.7734 -0.031,-0.5625 -0.7343,-4.2579 -7.7813,-41.2031 -4.539,-15.8828 -11.4454,-38.8437 -15.6953,-37.0469 -10.4765,-19.7735 -19.5782,-34.6328 -22.664,-31.3125 -0.8828,-1.164 -13.8282,-16.4844 -26.3359,-28.9844 -14.2109,-12.5703 -21.9922,-18.6797 -9.586,-7.3203 -22.8515,-16.2656 -12.4219,-7.8203 -33.3437,-17.5938 -11.5625,-6.1406 -3.0547,-1.3047 -39.5469,-13.5703 -11.1797,-4.0469 -1.1875,-0.3359 -48.0781,-9.0313 -8.8516,-1.0078 -40.4765,-0.078 -2.961,0.2109 -7.3984,0.1719 -32.7031,4.4219 -20.4454,4.25"
         id="path21549"
         inkscape:connector-curvature="0"
         style="fill:#ffffff;fill-rule:nonzero;stroke-linecap:butt;stroke-linejoin:bevel;stroke-miterlimit:16" />
      <path
         d="m 2619.6484,1888.6719 4.1797,7.3906 0.3516,1.2266 1.7422,5.9531 11.3672,18.0937 7.0625,8.0078 8.3515,9.1329 2.8828,4.5703 1.2422,1.5078 9.4141,11.1719 7.4141,8.5312 6.2109,6.8672 2.2109,2.3672 1.1953,1.1562 2.2266,2.2266 5.2266,5.1094 3.6953,3.4922 1.0703,1.3203 4.0937,4.9375 3.9688,4.6172 3.9687,4.4531 4.0547,4.3984 4.2344,4.461 4.5547,4.6328 5.0156,4.9297 5.625,5.4218 6.5391,6.1328 1.1953,1.125 7.5,6.5469 8.5078,9.0781 11.1016,11.5313 11.9687,12.1797 4.2031,3.75 28.6797,25.164 2.3985,2.5782 0.1953,0.1875 34.125,31.0312 35.5078,27.5235 22.8047,14.8437 6.5937,5.0078 5.8985,5.8047 32.5468,27.3047 32.5704,22.7187 26.3593,14.6797 5.2266,4.2735 28.0469,19.0625 9.3203,4.9843 16.9062,8.1875 10.8047,3.1797 11.7344,7.6485 15.4375,6.875 3.4375,1.1562 15.2187,0.1094 5.1641,0.7109 4.3359,-1.2656 4.1797,-7.2031 0.2969,-2.3125 0.1406,-0.7188 1.2422,-27.8984 -0.414,-21.9766 -2.5625,-35.5156 -6.6797,-34.5469 -4.6328,-22.164 -10.6641,-33.3047 -8.7031,-21.0391 -14.3828,-31.414 -18.0079,-29.5235 -12.1406,-18.4765 -21,-26.8516 -15.164,-15.4375 -23.4219,-23.7891 -26.1641,-21.3125 -16.5312,-10.8984 -27.5078,-17.9297 -29.6329,-15.2422 -31.4296,-12.4765 -14.711,-5.1954 -31.2969,-9.1093 -32.4296,-6.3438 -33.2969,-3.5156 -33.8438,-0.7188 -8.1172,0.01 -31.9921,1.9531 -31.9375,4.5469 -30.625,6.8593 -1.1797,0.7969 -4.9844,3.9375 -0.023,7.4063 1.1406,1.8281 0.789,9.4922"
         id="path21551"
         inkscape:connector-curvature="0"
         style="fill:#ffffff;fill-rule:nonzero;stroke-linecap:butt;stroke-linejoin:bevel;stroke-miterlimit:16" />
      <path
         d="m 3385.1328,2688.9687 -2.289,-16.8671 -7.3047,-34.6485 -11.1328,-33.5156 -6.1641,-15.8828 -14.6641,-31.7735 -18.1093,-30.0312 -9.4219,-13.4766 -20.9453,-27.4843 -23.8672,-25.2657 -26.5547,-22.8281 -10.8516,-9.2578 -28.1093,-19.625 -26.6641,-14.9844 -11.5625,-5.0469 -9.375,0.7969 -0.8203,0.7891 -10.4766,3.539 -9.1328,10.2422 -2.0312,5.4141 -1,3.5234 -4.6641,7.8828 -4.5313,14.4219 -1.5546,6.3281 -1.2891,2.8438 -3.0547,13.2422 -3.1562,19.1094 -0.1875,1.9453 -0.016,2.3828 -2.5234,13.3828 -2.2031,16.0625 -1.2657,14.8281 -0.4609,14.1875 0.2422,14.0235 0.9297,13.9062 -0.055,0.3516 -0.6484,14.3828 0.039,15.1406 0.7813,16.3984 1.6172,18.2657 2.6171,21.0547 2.7735,17.7578 0.1015,4.3281 0.211,2.4609 3.7812,30.25 3.6094,22.8282 1.4219,5.7812 1.75,11.8203 5.2969,30.2656 4.8984,19.5235 1.2656,9.164 2.5313,15.1485 10.2187,39.1406 11.5235,30.1875 0.9609,4.4844 10.4219,32.7265 12.6172,27.3594 13.8906,20.6797 0.4531,1.2656 10.9375,19.875 12.4844,14.0782 11.5,6.914 1.4453,2.0156 4.8047,3.0625 5.2422,2.2032 11.6093,-2.1485 6.711,-4.414 3.2187,-3.0547 2.0625,-1.7813 17.1407,-18 6.7265,-8.5625 22.9297,-29.4531 19.5391,-31.1953 15.9531,-32.625 5.0937,-13.3359 12.5157,-34.4454 8.5937,-35.1328 4.6172,-35.4609 1.7266,-16.2656 0.6484,-35.8282 -3.3672,-35.375"
         id="path21553"
         inkscape:connector-curvature="0"
         style="fill:#ffffff;fill-rule:nonzero;stroke-linecap:butt;stroke-linejoin:bevel;stroke-miterlimit:16" />
      <path
         d="m 1829.0469,3554.8828 -0.016,-0.4141"
         id="path21555"
         inkscape:connector-curvature="0"
         style="fill:#ff0d40;fill-rule:nonzero;stroke-linecap:butt;stroke-linejoin:bevel;stroke-miterlimit:16" />
      <path
         d="m 1829.0469,3554.8828 -0.016,-0.4141"
         id="path21557"
         inkscape:connector-curvature="0"
         style="fill:none;stroke:#fa0f45;stroke-width:1;stroke-linecap:round;stroke-linejoin:round;stroke-miterlimit:16" />
      <path
         d="m 1831.5234,3494.3359 -0.664,-3.2656 -9.1172,-35.1016 -0.1406,-2.2812 -9.6328,-44.5391 -1.5313,-3.9453 -16.5391,-38.9453 -15.2265,-25.4375 -6.5625,-16.7969 -17.8828,-31.0703 -6.5157,-10.875 -1.3984,-1.7109 -26.6094,-38.3906 -32.3125,-35.7735 -4.1562,-3.539 -10.336,-10.6563 -17.164,-21.2734 -34.0625,-31.2813 -11,-7.3047 -10.1406,-8.4687 -14.2891,-11.8672 -3.6875,-2.1797 -6.9766,-4.1406 -4.7343,-2.7813 -3.4922,-2.0078 -2.7188,-1.5703 -2.2265,-1.2656 -1.8985,-1.0547 -1.6562,-0.9063 -1.5,-0.8046 -1.3828,-0.7344 -1.3204,-0.6797 -1.2812,-0.6563 -1.4688,-0.7187 -0.9921,-0.6328 -1.1875,-0.7656 -1.2266,-0.7657 -1.3125,-0.8047 -1.4219,-0.8515 -1.5859,-0.9219 -1.7891,-1.0547 -2.125,-1.1953 -2.5937,-1.4687 -3.336,-1.8594 -4.539,-2.4844 -6.6719,-3.625 -3.4609,-1.8672 -15.0469,-4.8281 -10.7813,-3.4141 -9.375,-4.3359 -33.164,-7.3359 -19.0078,0.5312 -9.125,-0.8594 -3.3047,-0.789 -27.6641,0.6484 -25.9141,7.9453 -5.4609,2.9922 -17.0391,10.2266 -7.4218,7.9218 -11.25,8.961 -13.5547,18.8437 -1.5781,2.4532 -11.2579,29.5468 -0.414,1.8047 -5.4141,23.8672 -0.5,2.8672 -4.3437,35.1484 -1.0625,36.6563 2.4453,36.1953 1.2109,17.5625 6.2422,36.8281 9.8984,35.6485 6.0313,18.6718 13.9141,35.1094 17.5625,33.2109 10.6562,18.0235 21.4688,31.5078 24.914,28.8672 14.5703,15.8125 28.3516,26.1172 31.3516,22.8281 17.3281,12.2734 33.9922,19.2188 18.9843,8.1015 35.9219,15.2266 37.9141,11.2656 39.8515,7.1719 -0.3203,-0.039 17.6875,3.1641 29.9688,1.0234 2.1015,-0.2812 5.1094,-0.5781 17.1172,-1.5 8,-1.3907 30.2188,-11.5468 3.7578,-2.3672 18.9531,-18.461 2.4531,-1.8984 1.5313,-1.8047 1.4453,-3.0781 20.8125,-26.875 0.4922,-0.9219 9.3906,-33.8203 0.7266,-17.6641 3.2031,-19.7656 -0.711,-40.3672"
         id="path21559"
         inkscape:connector-curvature="0"
         style="fill:#ffffff;fill-rule:nonzero;stroke-linecap:butt;stroke-linejoin:bevel;stroke-miterlimit:16" />
      <path
         d="m 3039.7422,3010.3125 0.4062,-0.1641"
         id="path21561"
         inkscape:connector-curvature="0"
         style="fill:#ff0d40;fill-rule:nonzero;stroke-linecap:butt;stroke-linejoin:bevel;stroke-miterlimit:16" />
      <path
         d="m 3039.7422,3010.3125 0.4062,-0.1641"
         id="path21563"
         inkscape:connector-curvature="0"
         style="fill:none;stroke:#fa0f45;stroke-width:1;stroke-linecap:round;stroke-linejoin:round;stroke-miterlimit:16" />
      <path
         d="m 3210.2813,3140.3594 -4.1875,-14.4453 -11.7266,-40.0079 -3.6484,-8.8359 -11.8438,-21.4219 -3.125,-3.3672 -13.0391,-16.75 -18.914,-14.875 -19.9453,-7.4843 -1.1328,-0.6953 -25.375,-6.8594 -12.7969,0.414 -14.6797,-0.9843 -30.125,5.2656 -32.625,7.1953 -16.4219,7.1953 -18.0547,8.7656 -3.3906,2.3829 -24.7187,12.8359 -9.7344,5.5234 -18.7969,14.0782 -20.2578,16.375 -3.7109,3.2734 -8.0938,8.4453 -3.7109,2.9688 -8.3672,7.1718 -6.961,5.4844 -13.3046,11.3828 -11.461,10.711 -10.1406,10.4453 -9.2188,10.5 -8.625,10.8437 -3.0859,4.2969 -6.0703,6.2891 -9.4297,10.7968 -9.375,11.8516 -9.6406,13.375 -10.2578,15.5312 -4.2032,6.9219 -7.3125,11.0547 -7.8906,12.6953 -0.414,0.8047 -5.1094,7.4297 -15.9531,25.0937 -11.586,19.6172 -7.6406,16.6719 -12.7031,30.0313 -2.7813,9.8046 -9.4765,23 -4.1954,11.1172 -9.125,41.4453 -8.039,38.7422 -1.4688,36.4297 0.9532,6.3438 2.375,27.164 0.5,1.4688 2.6953,28.0156 9.7343,26.2969 12.7266,17.8515 2,4.836 15.2734,18.2578 7.1485,4.9375 15.6094,8.8437 12.8906,3.9766 12.4219,4.9453 1.5234,0.2578 17.8906,3.1563 6.0938,0.5547 38.5781,-1.2266 43.1328,-5.6016 42.5391,-9.8203 41.4609,-13.9062 39.9141,-17.8906 37.9375,-21.6563 35.5234,-25.2187 32.7188,-28.4844 29.5703,-31.4219 26.1093,-33.9922 22.3438,-36.2109 18.3984,-38 4,-9.7735 14.5938,-40.3359 10.25,-41.2656 5.8047,-41.75 1.3672,-41.8203 0.3437,-13.9532 -3.0781,-41.9765 -7.4531,-41.1328"
         id="path21565"
         inkscape:connector-curvature="0"
         style="fill:#ffffff;fill-rule:nonzero;stroke-linecap:butt;stroke-linejoin:bevel;stroke-miterlimit:16" />
      <path
         d="m 2623.625,3174.2266 0,-0.039"
         id="path21567"
         inkscape:connector-curvature="0"
         style="fill:#ff0d40;fill-rule:nonzero;stroke-linecap:butt;stroke-linejoin:bevel;stroke-miterlimit:16" />
      <path
         d="m 2623.625,3174.2266 0,-0.039"
         id="path21569"
         inkscape:connector-curvature="0"
         style="fill:none;stroke:#fa0f45;stroke-width:1;stroke-linecap:round;stroke-linejoin:round;stroke-miterlimit:16" />
      <path
         d="m 2366.0391,2892.1875 -0.5157,-0.1953"
         id="path21571"
         inkscape:connector-curvature="0"
         style="fill:#ff0d40;fill-rule:nonzero;stroke-linecap:butt;stroke-linejoin:bevel;stroke-miterlimit:16" />
      <path
         d="m 2366.0391,2892.1875 -0.5157,-0.1953"
         id="path21573"
         inkscape:connector-curvature="0"
         style="fill:none;stroke:#fa0f45;stroke-width:1;stroke-linecap:round;stroke-linejoin:round;stroke-miterlimit:16" />
      <path
         d="m 2618.2031,3137.7578 -5.8515,-22.3594 -14,-34.7812 -6.9688,-13.586 -10.414,-14.6953 -14.2188,-26.2422 -3.1328,-4.75 -34.1953,-39.5781 -4.6172,-3.9687 -28.2734,-21.5547 -6.5313,-6.3594 -15.7187,-11.5156 -28.3516,-18.2735 -23,-10.4765 -23.9219,-9.6094 -32.9687,-7.8203 -4.2969,-1.3906 -12.1641,-4.3438 -24.4375,-5.0781 -28.6797,-4.8516 -7.3984,-0.1562 -26,0.1484 -5.8516,-0.2969 -15.5156,-0.3437 -8.4219,0.9453 -20.5312,2.7422 -16.3516,2.5937 -8.3437,1.5157 -4.875,0.6093 -0.9766,0.1485 -10.3281,2.6094 -9.7656,2.6796 -8.5703,2.5235 -7.6954,2.4375 -7.0234,2.3906 -6.5156,2.3828 -6.1406,2.3906 -2.461,1.0235 -3.4531,1.1875 -5.8281,2.125 -5.8125,2.289 -5.8828,2.4688 -6.0469,2.6953 -6.2891,2.9688 -6.6406,3.3281 -7.125,3.7656 -7.8359,4.3359 -4.6485,2.6875 -4.5234,2.2344 -6.5313,3.3516 -4.1015,2.7031 -11.2344,7.9375 -13.3125,9.9219 -16.2734,12.7656 -1.125,0.9297 -1.2266,0.8594 -15.9922,15.5468 -20.6016,21.25 -1.4218,1.9375 -16.9375,25.2969 -2.8516,3.875 -7.6172,11.1406 -6.9219,14.625 -8.2109,13.6875 -7.6875,13.9219 -13.3594,36.875 -2.6406,8.4766 -5.0078,32.664 -2.2344,13.0704 -0.4297,3.8671 0.3594,8.6797 -2.4062,38.2735 0.9687,11.7422 5.9453,37.7265 6.0313,20.4219 5,12.7812 4.914,16.8204 12.4375,27.7343 0.3438,0.6172 10.0781,18.7188 21.3125,30.6406 14.0781,16.6406 0.039,0.024 24.8047,26.3593 16.9765,14.7657 26.2266,19.0078 18.6719,10.7031 16.1797,9.8437 10.6797,5.4454 19.8984,7.7031 27.5937,11.3515 19.3594,5.5313 27.8047,6.3203 3.7188,0.4219 43.6171,5.8672 45.1954,0.875 0.6328,0 28.4297,-3.4453 15.7656,-1.6875 43.0781,-9.461 40.9609,-14.0859 8.3438,-4.0156 31.1562,-14.1875 37.2266,-22.5625 20.1406,-15.7657 6.6641,-5.6172 7.7109,-5.9453 31.4688,-31.9297 27.7969,-36.7656 6.3125,-10.9375 1.9375,-4.1172 14.5234,-27.0156 5.2578,-14.0469 13.1953,-31.3515 0.125,-0.4297 9.8281,-50.75 0.336,-4.6328 1.1875,-10.7188 0.1015,-39.2109 -2.2734,-19.7656 -5.4219,-36.4688"
         id="path21575"
         inkscape:connector-curvature="0"
         style="fill:#ffffff;fill-rule:nonzero;stroke-linecap:butt;stroke-linejoin:bevel;stroke-miterlimit:16" />
      <path
         d="m 2603.9688,3761.5078 -0.4219,-1.125 -12.4297,-13.8984 -1.6953,-0.9922 -14.1797,-15.7188 -21.9063,-14.0781 -9.414,-3.5781 -16.5235,-5.6328 -2.6484,-1.7657 -32.375,-12.4531 -6.3359,-1.2734 -30.8203,-9.961 -19.6407,-3.7812 -24.7812,-3.8125 -4.5938,-0.2813 -31.9453,-5.3125 -13.4765,-1.5781 -18.2032,-0.3047 -13.6953,-2.0312 -27.7109,-2.9375 -10.0547,-0.2891 -30.0234,0.4141 -26.2032,1.6094 -14.7187,1.6796 -9.4688,-0.3125 -6.4843,0.125 -16.1485,0.7735 -21.2031,1.9219 -20.4688,2.7656 -20.3359,3.6875 -14.8672,3.375 -0.7812,0.2109 -5.0157,0.4688 -21.1171,3.3203 -22.2032,4.875 -24.2343,6.8125 -10.8829,3.7265 -15.4296,7.1797 -0.9688,0.25 -27.8516,9.4375 -2.0468,1.0547 -24.8828,15.4453 -2.9375,1.2266 -8.0469,5.1562 -15.1406,11.25 -2.6016,3.1719 -14.6797,12.4844 -7.6328,13.6953 -1.8594,3.8359 -0.1719,2.0782 -4.7968,13.0703 1.3125,16.2109 7.0703,16.0469 0.3672,1.1172 4.789,6.5859 9.1407,12.1485 26.8828,29.8046 29.9687,26.8672 12.0313,8.9688 32.7265,23.5703 35.2422,20.0391 37.4375,16.2656 13.0078,4.6094 38.7422,12.125 40.125,8.0078 41.1172,3.789 11.375,-0.125 40.6641,-0.5312 40.7578,-4.75 40.3906,-8.9688 39.5703,-13.0937 38.336,-17.1094 36.6562,-20.9375 3.2578,-2.2187 33.3906,-23.6954 31.0235,-26.8984 28.3359,-30.4375 0.039,-0.062 18.0547,-22.5547 7.6015,-10.0234 5.8438,-9.3438 4.8906,-16.0547 -0.8047,-5.1796 1.2891,-12.211 -4.5781,-15.9453"
         id="path21577"
         inkscape:connector-curvature="0"
         style="fill:#ffffff;fill-rule:nonzero;stroke-linecap:butt;stroke-linejoin:bevel;stroke-miterlimit:16" />
      <path
         d="m 2039,1059.1875 c -0.016,28.625 -14.9687,46.5391 -17.1172,48.9766 -0.2734,-0.1329 -0.539,-0.2813 -0.8281,-0.4141 -6,-7.9844 -63.75,-83.9766 -105.0625,-110.6641 16.5156,53.0625 -17.6953,60.2188 -17.6953,60.2188 0,0 -46.6641,-65.0235 -95.7031,-83.6016 25.1171,20.2891 7.5546,48.9141 0.5703,58.3985 -2.461,-0.5469 -4.8985,-1.0704 -7.336,-1.586 -15.2265,-14.7187 -64.7265,-59.3672 -119.1953,-74.0469 40.7266,34.0782 23.3672,54.2266 16.5469,59.9297 -1.6641,-0.094 -3.3438,-0.2187 -4.9922,-0.2968 -12,-8.5782 -63.4297,-42.5079 -141.3984,-54.3204 45.8203,26.0704 43.0078,48.5547 39.1718,57.6875 -3.4375,0.3829 -6.8593,0.7969 -10.2578,1.2344 -23.2031,-9.0859 -93.0312,-34.7031 -134.6718,-31.5469 38.75,15.5469 36.6875,39.0313 33.0703,50.1016 -3.961,0.8672 -7.9141,1.7344 -11.8672,2.6094 -25.6328,-9.5 -100.125,-33.5235 -159.5781,-17.0547 10.0703,5.5391 25.4218,20.9453 41.9375,39.7266 -46.5235,6.3593 -96.5,8.8281 -154.086,2.7343 30.5313,34.4766 47.5625,74.5078 60.6406,118.6719 -30.2656,0.7813 -55.9609,-0.4766 -68.3359,-5.6016 14.1953,36.961 65.7266,77.4532 91.2656,95.8125 1.2266,5.0391 2.4688,10.1016 3.7578,15.211 -13.9687,5.2344 -40.5078,10.75 -73.8281,-3.4844 35.0547,50.8438 105.6094,107.2031 105.6094,107.2031 0,0 -10.4141,19.2422 -64.5938,7.3203 40.2735,44.7422 96.2344,79.375 115.8672,90.8204 1.3516,2.0625 2.6953,4.125 4.0938,6.1953 -8.086,5.1875 -31.9688,17.2422 -66.3203,6.1015 47.6875,45.0078 123.0781,78.2266 144.7422,87.2344 1.5078,1.4844 3.0156,3 4.5078,4.4609 -4.7657,5.586 -21.6719,20.5938 -62.5703,15.7579 29.3671,24.7421 122.5937,49.1484 148.4531,55.5781 2.0156,1.3906 4.0156,2.7422 6.0312,4.0937 -2.4375,6.1797 -12.4297,22.3125 -51.3359,27.4297 51.0078,22.2735 120.5234,25.461 152.2734,25.6641 6.2969,2.3984 12.5703,4.6015 18.8047,6.6406 0.2266,8.6484 -5.8515,24.0703 -45.1172,37.9141 112.4453,18.875 250.6563,-33.4844 250.6563,-33.4844 l 0.2578,-0.3594 c 81.25,-27.0156 140.2812,-88.9453 159.7187,-166.125 -139.8671,-163.0078 -460.6328,-339.5469 -599.8984,-403.5312 153.2656,45.8359 455.75,172.6953 651.0078,343.3047 104.4766,-47.1797 126.4063,-134.1954 101.875,-217.3047 -3.5625,-14.8203 -37.2578,-145.2188 -139.0703,-233.6094"
         id="path21579"
         inkscape:connector-curvature="0"
         style="fill:#ffffff;fill-rule:nonzero;stroke-linecap:butt;stroke-linejoin:bevel;stroke-miterlimit:16" />
      <path
         d="m 3310.7813,1287.8828 c -33.3125,14.2344 -59.8594,8.7188 -73.8282,3.4844 1.2891,-5.1094 2.5391,-10.1719 3.7657,-15.211 25.5312,-18.3593 77.0625,-58.8515 91.2578,-95.8125 -12.375,5.125 -38.0703,6.3829 -68.3282,5.6016 13.0704,-44.1641 30.1016,-84.1953 60.6407,-118.6719 -57.586,6.0938 -107.5703,3.625 -154.086,-2.7343 16.5078,-18.7813 31.8594,-34.1875 41.9297,-39.7266 -59.4531,-16.4688 -133.9453,7.5547 -159.5781,17.0547 -3.9531,-0.875 -7.9063,-1.7422 -11.8672,-2.6094 -3.6172,-11.0703 -5.6797,-34.5547 33.0703,-50.1016 -41.6406,-3.1562 -111.4687,22.461 -134.6719,31.5469 -3.3984,-0.4375 -6.8125,-0.8515 -10.2578,-1.2344 -3.8359,-9.1328 -6.6484,-31.6171 39.1719,-57.6875 -77.9687,11.8125 -129.3984,45.7422 -141.3984,54.3204 -1.6485,0.078 -3.3282,0.2031 -4.9922,0.2968 -6.8203,-5.7031 -24.1797,-25.8515 16.5469,-59.9297 -54.4688,14.6797 -103.9688,59.3282 -119.1954,74.0469 -2.4375,0.5156 -4.8671,1.0391 -7.3359,1.586 -6.9844,-9.4844 -24.5391,-38.1094 0.5781,-58.3985 -49.0468,18.5781 -95.7109,83.6016 -95.7109,83.6016 0,0 -34.2109,-7.1563 -17.6953,-60.2188 -41.3125,26.6875 -99.0625,102.6797 -105.0625,110.6641 -0.2813,0.1328 -0.5547,0.2812 -0.8281,0.4141 -2.1485,-2.4375 -17.1016,-20.3516 -17.1094,-48.9766 -101.8203,88.3906 -135.5156,218.7891 -139.0781,233.6094 -24.5313,83.1093 -2.6016,170.125 101.875,217.3047 195.2578,-170.6094 497.75,-297.4688 651.0078,-343.3047 -139.2657,63.9843 -460.0235,240.5234 -599.8907,403.5312 19.4297,77.1797 78.461,139.1094 159.711,166.125 l 0.2578,0.3594 c 0,0 138.2187,52.3594 250.6562,33.4844 -39.2578,-13.8438 -45.3437,-29.2657 -45.1171,-37.9141 6.2421,-2.0391 12.5078,-4.2422 18.8046,-6.6406 31.75,-0.2031 101.2657,-3.3906 152.2735,-25.6641 -38.9063,-5.1172 -48.8985,-21.25 -51.3281,-27.4297 2.0078,-1.3515 4.0078,-2.7031 6.0234,-4.0937 25.8594,-6.4297 119.0859,-30.836 148.4531,-55.5781 -40.8984,4.8359 -57.7969,-10.1719 -62.5703,-15.7579 1.4922,-1.4609 3,-2.9765 4.5078,-4.4609 21.6719,-9.0078 97.0547,-42.2266 144.7422,-87.2344 -34.3516,11.1407 -58.2266,-0.914 -66.3203,-6.1015 1.3984,-2.0703 2.7422,-4.1328 4.0937,-6.1953 19.6329,-11.4454 75.5938,-46.0782 115.875,-90.8204 -54.1796,11.9219 -64.6015,-7.3203 -64.6015,-7.3203 0,0 70.5547,-56.3593 105.6094,-107.2031"
         id="path21581"
         inkscape:connector-curvature="0"
         style="fill:#ffffff;fill-rule:nonzero;stroke-linecap:butt;stroke-linejoin:bevel;stroke-miterlimit:16" />
    </g>
    <text
       xml:space="preserve"
       style="font-size:40px;font-style:normal;font-weight:normal;fill:#000000;fill-opacity:1;stroke:none;display:inline;font-family:Bitstream Vera Sans"
       x="201.49191"
       y="390.97406"
       id="text2960-6-1"><tspan
         sodipodi:role="line"
         id="tspan2962-5-7"
         x="201.49191"
         y="390.97406">RASPICOM</tspan></text>
  </g>
</svg>
